Coordinates
version=1
nRows=10
nColumns=40
inDegrees=yes

Units are S.I. units (second, meters, Newtons, ...)
Angles are in degrees.

endheader
time	pelvis_tilt	pelvis_list	pelvis_rotation	pelvis_tx	pelvis_ty	pelvis_tz	hip_flexion_r	hip_adduction_r	hip_rotation_r	knee_angle_r	knee_angle_r_beta	ankle_angle_r	subtalar_angle_r	mtp_angle_r	hip_flexion_l	hip_adduction_l	hip_rotation_l	knee_angle_l	knee_angle_l_beta	ankle_angle_l	subtalar_angle_l	mtp_angle_l	lumbar_extension	lumbar_bending	lumbar_rotation	arm_flex_r	arm_add_r	arm_rot_r	elbow_flex_r	pro_sup_r	wrist_flex_r	wrist_dev_r	arm_flex_l	arm_add_l	arm_rot_l	elbow_flex_l	pro_sup_l	wrist_flex_l	wrist_dev_l
     15.75000000	     -3.14206851	     19.65705568	     80.05320237	      0.51048058	      1.00236321	     -1.01218775	     12.31639722	     -6.76908692	      3.71152894	     27.45590093	      0.47919587	     10.23927699	      0.00000000	      0.00000000	    -29.64269231	      9.99072513	    -10.24348129	      0.36183433	      0.00631520	     14.33512392	      0.00000000	      0.00000000	    -35.52695877	     -4.36630302	     -3.53843193	      7.96190348	    -13.52085867	     13.04612450	    135.63956249	     87.15754163	      0.00000000	      0.00000000	      6.87715492	    -18.37279533	      7.99616654	    139.22087933	     83.12372040	      0.00000000	      0.00000000
     15.76000000	     -3.51397102	     19.03700689	     79.90127664	      0.51158084	      0.99896022	     -1.00998401	     13.13165427	     -6.77708907	      3.90584697	     23.94847823	      0.41797980	      9.90973561	      0.00000000	      0.00000000	    -29.66809266	     10.42678668	    -10.55368968	      0.32177053	      0.00561596	     15.06331764	      0.00000000	      0.00000000	    -35.12514746	     -4.76218241	     -3.44851803	      7.73712003	    -13.29385648	     13.04414217	    135.54712372	     86.98741996	      0.00000000	      0.00000000	      7.12101797	    -18.46964757	      7.94828171	    139.22176877	     82.89022327	      0.00000000	      0.00000000
     15.77000000	     -3.94592796	     18.43862740	     79.73541776	      0.51282092	      0.99521075	     -1.00805813	     13.90484475	     -6.80125640	      4.48566296	     20.62595392	      0.35999081	      9.41378877	      0.00000000	      0.00000000	    -29.69790020	     10.92288540	    -10.79523853	      0.30564202	      0.00533446	     15.81137867	      0.00000000	      0.00000000	    -34.69271702	     -5.23581408	     -3.33237742	      7.48951351	    -13.01677277	     13.02447697	    135.47474057	     86.94265100	      0.00000000	      0.00000000	      7.31881024	    -18.48163820	      7.88642603	    139.21674362	     82.70036081	      0.00000000	      0.00000000
     15.78000000	     -4.21382088	     17.84126376	     79.38161263	      0.51472564	      0.99127194	     -1.00615506	     14.67852048	     -6.53605949	      5.68842454	     17.57778816	      0.30679028	      8.56508631	      0.00000000	      0.00000000	    -29.72742018	     11.29349637	    -11.07850804	      0.30563704	      0.00533437	     16.40746888	      0.00000000	      0.00000000	    -34.25781670	     -5.66089162	     -2.96611566	      7.22577874	    -12.70869256	     12.91867520	    135.38515778	     87.19431086	      0.00000000	      0.00000000	      7.53998876	    -18.47434402	      7.81599926	    139.15981861	     82.86420028	      0.00000000	      0.00000000
     15.79000000	     -4.42421292	     17.24450615	     78.97963723	      0.51674859	      0.98719373	     -1.00452463	     15.46341770	     -6.18553489	      7.30942581	     14.88758843	      0.25983744	      7.73829655	      0.00000000	      0.00000000	    -29.76197271	     11.61485387	    -11.29447516	      0.32670858	      0.00570214	     17.18199813	      0.00000000	      0.00000000	    -33.79169790	     -6.03543841	     -2.55408755	      6.97017028	    -12.38017956	     12.90972562	    135.29393147	     86.94701390	      0.00000000	      0.00000000	      7.63306811	    -18.38156471	      7.74301922	    139.16443613	     81.99601351	      0.00000000	      0.00000000
     15.80000000	     -4.79588702	     16.66628924	     78.57565425	      0.51864054	      0.98285616	     -1.00340722	     16.32925140	     -6.03792189	      9.22133770	     12.79166481	      0.22325667	      7.27614580	      0.00000000	      0.00000000	    -29.78817558	     12.12130791	    -11.43373855	      0.37675079	      0.00657554	     17.91023980	      0.00000000	      0.00000000	    -33.24713960	     -6.55902029	     -2.13860022	      6.62785794	    -12.06204731	     12.91330894	    135.19533808	     86.99225592	      0.00000000	      0.00000000	      7.63550693	    -18.18354570	      7.69151966	    139.10109077	     81.81889944	      0.00000000	      0.00000000
     15.81000000	     -5.07253766	     16.11808427	     78.28270408	      0.52059178	      0.97867799	     -1.00248697	     17.14542437	     -5.85587505	     10.95451762	     11.23844940	      0.19614794	      6.90591476	      0.00000000	      0.00000000	    -29.81600673	     12.44774478	    -11.43623597	      0.49310286	      0.00860627	     18.45652134	      0.00000000	      0.00000000	    -32.76151886	     -6.92837925	     -1.77155942	      6.29920517	    -11.69714294	     12.88876939	    135.11537415	     87.19585392	      0.00000000	      0.00000000	      7.60209656	    -17.93741173	      7.59957750	    139.01091943	     82.36513501	      0.00000000	      0.00000000
     15.82000000	     -5.22925233	     15.60205156	     77.74658621	      0.52308129	      0.97448016	     -1.00166400	     18.08096414	     -5.45020670	     12.90806000	     10.40138214	      0.18153837	      7.10709091	      0.00000000	      0.00000000	    -29.83738022	     12.75019102	    -11.74978395	      0.72551873	      0.01266269	     19.05828135	      0.00000000	      0.00000000	    -32.25964149	     -7.29999886	     -1.17222286	      6.04331474	    -11.31799469	     12.83602899	    134.96703644	     87.13887919	      0.00000000	      0.00000000	      7.49448872	    -17.58688017	      7.47072912	    138.90647545	     82.77031869	      0.00000000	      0.00000000
     15.83000000	     -5.30730345	     15.17068505	     77.35719950	      0.52537391	      0.97061102	     -1.00100697	     18.95810005	     -5.04824652	     14.28288873	     10.18674364	      0.17779222	      7.22090268	      0.00000000	      0.00000000	    -29.85447657	     12.90235474	    -11.98550987	      1.21127533	      0.02114074	     19.83247504	      0.00000000	      0.00000000	    -31.86449862	     -7.50867558	     -0.65768767	      5.81287673	    -10.91692613	     12.83456547	    134.87437649	     87.14489785	      0.00000000	      0.00000000	      7.34774587	    -17.18267935	      7.48838344	    138.79764538	     82.50452951	      0.00000000	      0.00000000
     15.84000000	     -5.50578940	     14.87233752	     77.14106122	      0.52731340	      0.96696001	     -1.00065617	     19.98839889	     -4.83990607	     14.72352803	     10.96954293	      0.19145464	      7.53745034	      0.00000000	      0.00000000	    -29.86406900	     13.11797545	    -12.26006225	      2.00187943	      0.03493939	     20.60428432	      0.00000000	      0.00000000	    -31.56912969	     -7.74497697	     -0.35667179	      5.63665467	    -10.51722979	     12.93111465	    134.69581344	     87.25484275	      0.00000000	      0.00000000	      7.13779289	    -16.73055372	      7.41635483	    138.69338251	     82.39823001	      0.00000000	      0.00000000
